# xmcd
#
# Track frame offsets:
#	150
#	20075
#	39627
#	58245
#	75232
#	93495
#	109877
#	130267
#	148330
#	168265
#	187740
#	206359
#	223317
#	241530
#	257890
#	278265
#	307722
#
# Disc length: 4115 seconds
#
# Revision: 1
# Processed by: cddbd v1.5.1PL2 Copyright (c) Steve Scherf et al.
# Submitted via: audiograbber 1.83.01
#
DISCID=e6101111
DTITLE=Sound Choice - SC3251
DYEAR=1900
DGENRE=Karaoke Country
TTITLE0=The Soggy Bottom Boys - I Am A Man Of Constant Sorrow
TTITLE1=Brad Paisley - Two People Fell In Love
TTITLE2=Neal Mccoy - Beatin' It In
TTITLE3=Marshall Dyllon - You
TTITLE4=Tim Mcgraw - Grown Men Don'T Cry
TTITLE5=Alan Jackson - When Somebody Loves You
TTITLE6=George Strait - If You Can Do Anything Else
TTITLE7=Tracy Byrd and Mark Chesnutt - A Good Way To Get On My Bad Side
TTITLE8=The Soggy Bottom Boys - I Am A Man Of Constant Sorrow
TTITLE9=Brad Paisley - Two People Fell In Love
TTITLE10=Neal Mccoy - Beatin' It In
TTITLE11=Marshall Dyllon - You
TTITLE12=Tim Mcgraw - Grown Men Don'T Cry
TTITLE13=Alan Jackson - When Somebody Loves You
TTITLE14=George Strait - If You Can Do Anything Else
TTITLE15=Tracy Byrd and Mark Chesnutt - A Good Way To Get On My Bad Side
TTITLE16=Must Specify An Artist - Data Track
EXTD=Tracks 9-16 Demos
EXTT0=
EXTT1=
EXTT2=
EXTT3=
EXTT4=
EXTT5=
EXTT6=
EXTT7=
EXTT8=
EXTT9=
EXTT10=
EXTT11=
EXTT12=
EXTT13=
EXTT14=
EXTT15=
EXTT16=
PLAYORDER=
